<svg xmlns="http://www.w3.org/2000/svg" viewBox="0 0 512 512" fill="white">
  <path d="M 141 197 L 141 199 L 140 200 L 140 203 L 139 204 L 139 207 L 138 208 L 138 211 L 137 212 L 137 216 L 136 217 L 136 221 L 135 222 L 135 228 L 134 229 L 134 238 L 133 239 L 133 270 L 134 271 L 134 278 L 135 279 L 135 285 L 136 286 L 136 291 L 137 292 L 137 296 L 138 297 L 138 300 L 139 301 L 139 304 L 140 305 L 140 307 L 141 308 L 141 311 L 142 312 L 142 314 L 143 315 L 143 317 L 144 318 L 144 319 L 145 320 L 145 322 L 146 323 L 146 324 L 147 325 L 147 327 L 148 328 L 148 329 L 149 330 L 149 331 L 150 332 L 150 333 L 151 334 L 151 335 L 152 336 L 152 337 L 153 338 L 153 339 L 154 340 L 154 342 L 156 344 L 156 345 L 157 346 L 157 347 L 159 349 L 159 350 L 161 352 L 161 353 L 164 356 L 164 357 L 167 360 L 167 361 L 181 375 L 182 375 L 187 380 L 188 380 L 193 385 L 194 385 L 196 387 L 197 387 L 199 389 L 200 389 L 201 390 L 202 390 L 203 391 L 204 391 L 205 392 L 206 392 L 207 393 L 208 393 L 209 394 L 210 394 L 211 395 L 213 395 L 214 396 L 216 396 L 216 393 L 217 392 L 217 381 L 218 380 L 218 369 L 219 368 L 219 356 L 220 355 L 220 344 L 221 343 L 221 331 L 222 330 L 222 318 L 223 317 L 223 310 L 222 309 L 222 308 L 218 304 L 218 303 L 215 300 L 215 299 L 214 298 L 213 298 L 207 292 L 207 291 L 199 283 L 199 282 L 191 274 L 191 273 L 184 266 L 184 265 L 181 262 L 181 261 L 180 260 L 180 259 L 179 258 L 179 257 L 177 255 L 177 254 L 176 253 L 176 252 L 174 250 L 174 249 L 173 248 L 173 247 L 171 245 L 171 244 L 168 241 L 168 240 L 166 238 L 166 237 L 164 235 L 164 234 L 163 233 L 163 232 L 161 230 L 161 229 L 160 228 L 160 227 L 158 225 L 158 224 L 157 223 L 157 222 L 156 221 L 156 220 L 154 218 L 154 217 L 153 216 L 153 215 L 152 214 L 152 213 L 150 211 L 150 210 L 149 209 L 149 208 L 147 206 L 147 205 L 145 203 L 145 202 L 143 200 L 143 199 L 142 198 L 142 197 Z M 366 195 L 364 197 L 364 198 L 363 199 L 363 200 L 362 201 L 362 202 L 361 203 L 361 204 L 359 206 L 359 207 L 358 208 L 358 209 L 357 210 L 357 211 L 356 212 L 356 213 L 355 214 L 355 215 L 354 216 L 354 217 L 353 218 L 353 219 L 352 220 L 352 221 L 350 223 L 350 224 L 349 225 L 349 226 L 348 227 L 348 228 L 347 229 L 347 230 L 346 231 L 346 232 L 344 234 L 344 235 L 343 236 L 343 237 L 342 238 L 342 239 L 341 240 L 341 241 L 340 242 L 340 243 L 338 245 L 338 246 L 337 247 L 337 248 L 336 249 L 336 250 L 335 251 L 335 252 L 334 253 L 334 254 L 333 255 L 333 256 L 332 257 L 332 258 L 331 259 L 331 260 L 330 261 L 330 262 L 322 270 L 322 271 L 292 301 L 292 302 L 289 305 L 289 309 L 290 310 L 290 325 L 291 326 L 291 343 L 292 344 L 292 359 L 293 360 L 293 374 L 294 375 L 294 390 L 295 391 L 295 396 L 298 396 L 299 395 L 301 395 L 302 394 L 303 394 L 304 393 L 305 393 L 306 392 L 307 392 L 308 391 L 309 391 L 310 390 L 311 390 L 313 388 L 314 388 L 315 387 L 316 387 L 318 385 L 319 385 L 324 380 L 325 380 L 328 377 L 329 377 L 340 366 L 341 366 L 344 363 L 344 362 L 348 358 L 348 357 L 351 354 L 351 353 L 353 351 L 353 350 L 354 349 L 354 348 L 356 346 L 356 345 L 357 344 L 357 343 L 358 342 L 358 341 L 359 340 L 359 338 L 360 337 L 360 336 L 361 335 L 361 334 L 362 333 L 362 332 L 363 331 L 363 329 L 364 328 L 364 327 L 365 326 L 365 324 L 366 323 L 366 321 L 367 320 L 367 318 L 368 317 L 368 315 L 369 314 L 369 312 L 370 311 L 370 308 L 371 307 L 371 304 L 372 303 L 372 299 L 373 298 L 373 293 L 374 292 L 374 287 L 375 286 L 375 279 L 376 278 L 376 264 L 377 263 L 377 227 L 376 226 L 376 219 L 375 218 L 375 215 L 374 214 L 374 211 L 373 210 L 373 208 L 372 207 L 372 206 L 371 205 L 371 204 L 370 203 L 370 202 L 369 201 L 369 200 L 368 199 L 368 198 L 367 197 L 367 196 Z " />
</svg>
